HIERARCHY
ROOT joint_Root
{
	OFFSET 0.0 0.0 0.0
	CHANNELS 6 Xposition Yposition Zposition Zrotation Xrotation Yrotation 
	JOINT Hips
	{
		OFFSET 4.5925 91.4895 -427.239
		CHANNELS 6 Xposition Yposition Zposition Zrotation Xrotation Yrotation 
		JOINT Spine
		{
			OFFSET 15.7357 0.0 0.0
			CHANNELS 6 Xposition Yposition Zposition Zrotation Xrotation Yrotation 
			JOINT Chest
			{
				OFFSET 8.98455 -0.406207 0.0
				CHANNELS 6 Xposition Yposition Zposition Zrotation Xrotation Yrotation 
				JOINT Neck
				{
					OFFSET 16.3773 0.0 0.0
					CHANNELS 6 Xposition Yposition Zposition Zrotation Xrotation Yrotation 
					JOINT Head
					{
						OFFSET 6.45672 0.0 0.0
						CHANNELS 6 Xposition Yposition Zposition Zrotation Xrotation Yrotation 
						End Site
						{
							OFFSET 0.0 0.0 0.0
						}
					}
				}
				JOINT Shoulder_L
				{
					OFFSET 12.9942 -0.242716 4.98039
					CHANNELS 6 Xposition Yposition Zposition Zrotation Xrotation Yrotation 
					JOINT UpperArm_L
					{
						OFFSET 5.34809 0.0 0.0
						CHANNELS 6 Xposition Yposition Zposition Zrotation Xrotation Yrotation 
						JOINT LowerArm_L
						{
							OFFSET 24.3286 1.87007e-05 0.0
							CHANNELS 6 Xposition Yposition Zposition Zrotation Xrotation Yrotation 
							JOINT Hand_L
							{
								OFFSET 22.2916 0.0 0.0
								CHANNELS 6 Xposition Yposition Zposition Zrotation Xrotation Yrotation 
								End Site
								{
									OFFSET 0.0 0.0 0.0
								}
							}
						}
					}
				}
				JOINT Shoulder_R
				{
					OFFSET 12.9945 -0.242716 -4.98039
					CHANNELS 6 Xposition Yposition Zposition Zrotation Xrotation Yrotation 
					JOINT UpperArm_R
					{
						OFFSET -5.34813 0.0 0.0
						CHANNELS 6 Xposition Yposition Zposition Zrotation Xrotation Yrotation 
						JOINT LowerArm_R
						{
							OFFSET -24.3289 0.000322201 0.0
							CHANNELS 6 Xposition Yposition Zposition Zrotation Xrotation Yrotation 
							JOINT Hand_R
							{
								OFFSET -22.2915 -0.000108084 0.0
								CHANNELS 6 Xposition Yposition Zposition Zrotation Xrotation Yrotation 
								End Site
								{
									OFFSET 0.0 0.0 0.0
								}
							}
						}
					}
				}
			}
		}
		JOINT UpperLeg_L
		{
			OFFSET -2.19248 -6.46944 0.0
			CHANNELS 6 Xposition Yposition Zposition Zrotation Xrotation Yrotation 
			JOINT LowerLeg_L
			{
				OFFSET 39.0811 0.0 -1.23785e-05
				CHANNELS 6 Xposition Yposition Zposition Zrotation Xrotation Yrotation 
				JOINT Foot_L
				{
					OFFSET 40.9854 0.0 -1.26872e-05
					CHANNELS 6 Xposition Yposition Zposition Zrotation Xrotation Yrotation 
					JOINT Toes_L
					{
						OFFSET 11.7543 0.0 0.0
						CHANNELS 6 Xposition Yposition Zposition Zrotation Xrotation Yrotation 
						End Site
						{
							OFFSET 0.0 0.0 0.0
						}
					}
				}
			}
		}
		JOINT UpperLeg_R
		{
			OFFSET -2.19251 6.46944 0.0
			CHANNELS 6 Xposition Yposition Zposition Zrotation Xrotation Yrotation 
			JOINT LowerLeg_R
			{
				OFFSET -39.0811 -0.00228153 -0.0401928
				CHANNELS 6 Xposition Yposition Zposition Zrotation Xrotation Yrotation 
				JOINT Foot_R
				{
					OFFSET -40.9854 0.0 0.0
					CHANNELS 6 Xposition Yposition Zposition Zrotation Xrotation Yrotation 
					JOINT Toes_R
					{
						OFFSET -11.7543 0.0 0.0
						CHANNELS 6 Xposition Yposition Zposition Zrotation Xrotation Yrotation 
						End Site
						{
							OFFSET 0.0 0.0 0.0
						}
					}
				}
			}
		}
	}
}
MOTION
Frames:	4
Frame Time:	0.0333333
0.000000 0.000000 0.000000 0.000000 0.000000 -0.000000 -4.646340 91.601400 -1.287180 88.157100 7.847880 2.812400 15.735700 0.000005 -0.000001 86.199300 87.048700 -87.690700 8.984550 -0.406207 -0.000000 -1.878130 -0.265698 -2.986510 16.377300 -0.000001 -0.000001 1.728960 -7.949670 7.147820 6.456720 -0.000001 -0.000000 -3.992230 -4.968650 -1.340430 12.994200 -0.242716 4.980390 -91.391000 3.782750 -69.793300 5.348090 -0.000007 -0.000001 -64.735900 20.377200 -4.007850 24.328600 0.000019 0.000005 7.411010 20.185000 -20.654600 22.291600 -0.000001 0.000005 12.835000 5.135140 4.296280 12.994500 -0.242716 -4.980390 93.969800 -9.426050 -67.036100 -5.348130 -0.000001 -0.000004 -41.540000 -69.194300 -81.628100 -24.328900 0.000322 -0.000009 -5.820660 -4.889070 -50.096100 -22.291500 -0.000108 -0.000004 21.992400 5.569510 -9.663080 -2.192480 -6.469440 -0.000000 -172.630000 -6.147020 -8.359190 39.081100 -0.000007 -0.000012 -0.139180 0.273085 27.006200 40.985400 -0.000006 -0.000013 -1.720480 9.812570 -66.251000 11.754300 -0.000000 0.000003 -0.000046 -0.000526 -16.598000 -2.192510 6.469440 -0.000001 -178.428000 26.320500 175.521000 -39.081100 -0.002282 -0.040193 0.001604 0.003689 24.844000 -40.985400 0.000008 0.000006 8.165250 8.291550 -69.325800 -11.754300 -0.000006 -0.000006 -0.003353 -0.044533 -18.384300
0.000000 0.000000 0.000000 0.000000 0.000000 -0.000000 -4.487400 91.615400 -1.510190 88.060900 6.858750 2.743480 15.735700 0.000005 -0.000001 86.668700 86.993600 -88.005700 8.984550 -0.406207 -0.000000 -1.764730 -0.238163 -2.676890 16.377300 -0.000001 -0.000001 1.416290 -7.588820 7.030090 6.456720 -0.000001 -0.000000 -3.764740 -4.399890 -1.162100 12.994200 -0.242716 4.980390 -91.374100 3.757670 -69.896300 5.348090 -0.000007 -0.000001 -65.370000 21.831000 -4.122440 24.328600 0.000019 0.000005 7.220620 20.415200 -19.961300 22.291600 -0.000001 0.000005 12.520300 5.135560 4.286320 12.994500 -0.242716 -4.980390 93.433200 -8.328880 -67.503200 -5.348130 -0.000001 -0.000004 -38.873700 -67.589000 -77.222200 -24.328900 0.000322 -0.000009 -6.286240 -5.071850 -51.246100 -22.291500 -0.000108 -0.000004 22.556500 5.569280 -9.651690 -2.192480 -6.469440 -0.000000 -172.712000 -6.205210 -8.441100 39.081100 -0.000007 -0.000012 -0.140385 0.274214 27.110600 40.985400 -0.000006 -0.000013 -1.792210 8.868490 -66.283800 11.754300 -0.000000 0.000003 -0.000045 -0.000514 -16.597500 -2.192510 6.469440 -0.000001 -178.422000 26.051700 175.230000 -39.081100 -0.002282 -0.040193 -0.007871 0.024102 24.891600 -40.985400 0.000008 0.000006 8.007620 9.051740 -69.125100 -11.754300 -0.000006 -0.000006 -0.003284 -0.043780 -18.353700
0.000000 0.000000 0.000000 0.000000 0.000000 -0.000000 -4.293490 91.620800 -1.719620 87.967100 5.856720 2.778800 15.735700 0.000005 -0.000001 86.373700 86.918400 -87.569500 8.984550 -0.406207 -0.000000 -1.617120 -0.291840 -2.395090 16.377300 -0.000001 -0.000001 1.109850 -7.165670 6.848370 6.456720 -0.000001 -0.000000 -3.580390 -3.886060 -0.854236 12.994200 -0.242716 4.980390 -91.352600 3.727190 -70.037900 5.348090 -0.000007 -0.000001 -66.010300 23.650700 -4.277980 24.328600 0.000019 0.000005 6.964030 20.524000 -19.207900 22.291600 -0.000001 0.000005 12.242400 5.132390 4.360800 12.994500 -0.242716 -4.980390 92.880400 -7.239990 -68.236500 -5.348130 -0.000001 -0.000004 -35.213700 -65.194800 -70.852700 -24.328900 0.000322 -0.000009 -7.092950 -5.465220 -52.563600 -22.291500 -0.000108 -0.000004 23.083800 5.564600 -9.415790 -2.192480 -6.469440 -0.000000 -172.791000 -6.391640 -8.433190 39.081100 -0.000007 -0.000012 -0.141174 0.273888 27.268900 40.985400 -0.000006 -0.000013 -1.811010 8.054350 -66.352600 11.754300 -0.000000 0.000003 -0.000056 -0.000626 -16.601800 -2.192510 6.469440 -0.000001 -178.505000 25.715100 175.058000 -39.081100 -0.002282 -0.040193 -0.019503 0.048985 24.974000 -40.985400 0.000008 0.000006 7.757760 9.823410 -68.928100 -11.754300 -0.000006 -0.000006 -0.003369 -0.044712 -18.391600
0.000000 0.000000 0.000000 0.000000 0.000000 -0.000000 -4.061290 91.632500 -1.906080 87.888600 4.750450 2.806460 15.735700 0.000005 -0.000001 86.547300 86.837200 -87.603400 8.984550 -0.406207 -0.000000 -1.453810 -0.295934 -2.115190 16.377300 -0.000001 -0.000001 0.749882 -6.667360 6.505060 6.456720 -0.000001 -0.000000 -3.514300 -3.573100 -0.433249 12.994200 -0.242716 4.980390 -91.367400 3.783460 -70.112100 5.348090 -0.000007 -0.000001 -66.579300 25.449700 -4.590880 24.328600 0.000019 0.000005 6.755730 20.683000 -18.540900 22.291600 -0.000001 0.000005 12.059500 5.135060 4.298070 12.994500 -0.242716 -4.980390 92.284700 -5.988630 -69.074300 -5.348130 -0.000001 -0.000004 -30.947900 -62.001700 -63.346100 -24.328900 0.000322 -0.000009 -7.874970 -5.787740 -53.900300 -22.291500 -0.000108 -0.000004 23.498400 5.559300 -9.153770 -2.192480 -6.469440 -0.000000 -172.877000 -6.835920 -8.360550 39.081100 -0.000007 -0.000012 -0.143411 0.277007 27.371500 40.985400 -0.000006 -0.000013 -1.778890 7.402910 -66.420500 11.754300 -0.000000 0.000003 -0.000056 -0.000623 -16.601700 -2.192510 6.469440 -0.000001 -178.614000 25.300100 174.899000 -39.081100 -0.002282 -0.040193 -0.028412 0.067952 25.025800 -40.985400 0.000008 0.000006 7.544120 10.605100 -68.718600 -11.754300 -0.000006 -0.000006 -0.003358 -0.044589 -18.386600
